<svg id="Calque_1" data-name="Calque 1" xmlns="http://www.w3.org/2000/svg" viewBox="0 0 331.15 374.52"><title>dry-logo-vertical</title><path d="M42.07,70.67,5.82,52.15a2,2,0,0,0-1.44-.22c-1.84.32-1.46,2.17-1.19,3.59l32.89,109.3,2.23,2.12,35.53,18.15c1.37.53,3.17.67,3.47-1.08L44.07,72.66ZM60.15,171.84v0c.38,1.28.35,2.16-.07,1.95l-10-5.09A5.79,5.79,0,0,1,48.61,166l-8.86-30.22L7.61,60.69A8,8,0,0,1,7,58.53c0-.28,0-.73.37-.54l10.28,5.24A4.69,4.69,0,0,1,19,65.31l15.74,38.63L28.83,70.26c-.13-.9,0-1.33.36-1.15l11.1,5.66a2.74,2.74,0,0,1,.9,1.21,8.33,8.33,0,0,1,.66,2.2l9.24,63.59Z" fill="#fffaf0"/><path d="M107.58,82,99.12,85.3l8,28.53,8.33,26.28,9.08-3.55c16.2-6.34,21-17.22,15.62-35.33-5.6-18.74-16.89-25.4-32.6-19.25" fill="#fffaf0"/><path d="M156.37,158.29q-.39-4.83-.78-9.65a110.08,110.08,0,0,1-24.84,13.24L88.94,178.24a2.3,2.3,0,0,1-3.13-1.37L72,128.24,56,77.19a2.79,2.79,0,0,1,1.74-3.28l41.5-16.24c46.14-18.05,65.94,2.67,74.17,19.54l8-1.21L167.2,28.22c-.43-1.44-1.24-2.74-2.92-2.71l-115.56,45a3.3,3.3,0,0,0-2.12,2.89c10.69,34.62,20.23,69.63,31,104.21.63,2,2,8.23,3.63,9.08a2.71,2.71,0,0,0,1.3.32Z" fill="#fffaf0"/><path d="M82.73,33.93c4.14-1.62,11.31-5,8.74-6.34s-7.78-.37-16.74,3.13l-17,6.63L64.67,41Z" fill="#fffaf0"/><path d="M7.12,50.86c5.1,3.31,13.72,7,19.46,9.91,5,2.53,11.37,6.29,16.44,8.22a4.36,4.36,0,0,0,2.5.59L161,24.32c1.14-1.15.46-2.53-.8-3.22L123.68,2.46a5.92,5.92,0,0,0-3.26-.2L7.49,46.37c-2.95,1.34-3.05,2.75-.37,4.49m7.78-3.72L66.33,27c32.6-12.75,53.73-17.5,61.15-13.72,4.44,2.26,0,7.11-12.56,13.69L151.7,22.8c.77-.09,1.1,0,1,.25a4.85,4.85,0,0,1-1.81,1L113.33,38.73a11.38,11.38,0,0,1-3.22.84L83.26,42.13l-5.35.67-5.48,2.15,10.41,5c.42.21-.37.82-1.79,1.38L48.32,64.16a6.29,6.29,0,0,1-3.28.61l-15-8L13.11,48.51c-.41-.21.38-.82,1.8-1.37" fill="#fffaf0"/><path d="M323,206.48c-10.27-5.12-20.13-11.9-30.35-17a6.94,6.94,0,0,0-4.58-.76L172.93,206.26l5.62,1.9,43.72-6.64c59.45-9,76.13-4.25,80.55-1.78,9,5-9.35,11.31-51.62,17.73l-31.14,4.73,6.26,2.11,95.58-14.46c1.95-.25,2.79-2.08,1.11-3.37" fill="#fffaf0"/><path d="M245.71,213.46c17.21-2.61,22.68-5,17.72-7.79-5.14-2.87-16.71-3.05-33.4-.51l-9,1.37,7.32,4.42,7.72,4Z" fill="#fffaf0"/><path d="M221.86,127.35c4.49-.68,12.78-4.24,12-12.89-.77-8.83-5.44-12.14-15.15-10.67l-18.37,2.79,1.93,23.73Z" fill="#fffaf0"/><path d="M154,82.35c-1.91.79-1.76,2.34-1.69,4.12,2.09,20.19,3.68,40.43,5.29,60.67q.41,5.18.83,10.35c.05.63.1,1.26.16,1.9,1.12,13.73,2.29,27.46,3.7,41.16.07.65.1,1.44.23,2.18l6.54,2.21c1.68-.3,3.38-.67,4.42-.82q56.92-8.49,113.78-17.35c1.8-.38,2.23-1.78,2.17-3.45-.14-4-.91-8.6-1.27-12.7-2.92-33.84-5.41-67.79-8.89-101.57-.28-2.74.16-5.83-3.85-5.29l-91.47,14-1.86.29-7.66,1.17Zm29.46.29,1.88-.28,30.46-4.63c35.33-5.37,55.14,5,57.33,30,1.31,15-6.25,27.9-21.3,36.53l30.93,34a2.09,2.09,0,0,1,.49,2.28A2.81,2.81,0,0,1,281,182l-40.66,6.18a3,3,0,0,1-3.12-1.11l-22.14-26.8-4.55-4.69-5.94.9,3.3,34.05a2.88,2.88,0,0,1-2.53,3l-35.47,5.39a2.46,2.46,0,0,1-3-2.09l-3.08-39.48-.15-1.88-.84-10.82-.18-1.82L157.5,89.13A2.85,2.85,0,0,1,160,86.2l16.18-2.46Z" fill="#fffaf0"/><path d="M318.52,86.55a4.69,4.69,0,0,0-2.4-3c-10.34-5.25-20.28-11.89-30.58-17.12a4.5,4.5,0,0,0-2.71-.84,1.67,1.67,0,0,0-1.2.8c-.8,1.31,0,4.69.15,6.32q4.25,50.8,8.89,101.57c.3,3.36.34,6.81.73,10.15a4.78,4.78,0,0,0,2.6,3.75c10.35,5.23,20.28,11.89,30.59,17.11,2.11,1.07,4,1.54,4.36-1.46ZM315,191.83c.12,1.38-.08,2.34-.45,2.13L306,189.18c-.36-.2-.75-1.49-.87-2.84v0l-2.7-31.76L286.12,75.46a8.14,8.14,0,0,1-.2-2.32c0-.33.13-.82.46-.64l9.49,5.31a3.65,3.65,0,0,1,.86,2.07l7.56,40.68.89-35.88c0-1,.26-1.52.57-1.35l8.8,4.92c.33.18.53.84.62,1.21a9,9,0,0,1,.21,2.3L312,159.61Z" fill="#fffaf0"/><path d="M152,340.79c-17.07-5.73-24.73-7.74-22.15-5.8l1.39,1,25.9,8.73,24,8-1.49-1.12c-2.66-2-11.18-5.35-27.67-10.89" fill="#fffaf0"/><path d="M212.86,363.53c-5.66-4.26-11.23-8.79-17.25-12.49-33.49-10.71-66.52-22.92-100-33.7a7.08,7.08,0,0,0-2.91-.64c-1.58.3-1.19,1.87-.32,2.78L112,333.8c32.69,11.33,65.66,21.88,98.39,33.1,1.23.42,5.73,2.78,6.36.92s-2.73-3.42-3.89-4.29m-5.19.65L163.51,349.3,116.9,333.69a15.86,15.86,0,0,1-2.52-1l-6.81-5.12c-9.19-6.9,24,3.83,38.65,8.76,29.77,10,49.77,18.21,56.3,23.12l6.86,5.16c.22.16-.56,0-1.72-.41" fill="#fffaf0"/><path d="M191.84,347.73c1.86.59,3.68,1.56,5.19-.35q21.16-57.26,41.76-114.78c-.09-1.78-1.14-2.41-2.64-3l-9.86-3.32-4.05-1.36-6.25-2.1-37.17-12.49-9.67-3.25-8.62-2.9-33-11.08a6.06,6.06,0,0,0-1.82-.27c-1.72.17-2.37,1.69-2.87,3.13L82.35,307.24c-.79,2.75.08,3.71,2.53,4.71,3.84,1.57,8.85,2.76,12.93,4.12,31.35,10.48,62.55,21.61,94,31.66m-63.93-30.82v0l11.33-30.33L134.66,206a2.66,2.66,0,0,1,.83-2.21,1.89,1.89,0,0,1,2-.34l29.14,9.79a2.46,2.46,0,0,1,1.6,2.33l-.44,41L193,225.68l1.06-1.3.21-.21a2.56,2.56,0,0,1,2.61-.72l10.88,3.65,4.16,1.4,12,4a1.85,1.85,0,0,1,1.34,1.43,2.75,2.75,0,0,1-.76,2.21l-55.61,60L158.2,327.06a2.45,2.45,0,0,1-2.91,1.71L129.06,320a2.29,2.29,0,0,1-1.15-3" fill="#fffaf0"/><path d="M245.22,273.78l-3.61-2.71-8.28,22.66,3.84,2.88c.88.66,3.34-.26,6.35-8.53,3.07-8.45,3.61-12.88,1.7-14.31" fill="#fffaf0"/><path d="M269,252.47c-8.28-5.57-16-12.88-24.33-18.29-.88-.57-1.48-1.14-2.64-.9s-1.74,1.47-2.08,2.45l-41,113a3.77,3.77,0,0,0,1.54,3.14c7.13,6.43,16.73,11.61,24,18.11,1.32,1,3.33,1.54,4.38-.09L270.32,256a3.43,3.43,0,0,0-1.35-3.52M251.5,293.15c-5.21,14.31-10.94,24.17-16.19,27.86l-7.88,40.6a8.66,8.66,0,0,1-.75,2.27c-.33.62-.64.87-.84.72l-8-6c-.27-.2-.29-.89,0-1.93l6.53-31.35,1-5.68-1.17-.88-11.81,32.66c-.49,1.34-1.12,2.25-1.42,2l-7-5.23c-.3-.23-.15-1.49.33-2.81l18.24-49.76,19.25-53.22c.49-1.34,1.11-2.22,1.41-2l10.94,8.22c6.94,5.21,6,20.58-2.69,44.5" fill="#fffaf0"/><path d="M41.18,76a2.74,2.74,0,0,0-.9-1.21l-11.1-5.66c-.35-.18-.49.25-.36,1.15l5.89,33.67L19,65.31a4.67,4.67,0,0,0-1.33-2.08L7.36,58c-.38-.19-.4.26-.37.54a8,8,0,0,0,.63,2.16l32.13,75.05L48.61,166a5.76,5.76,0,0,0,1.48,2.76l10,5.09c.42.21.45-.67.07-1.95v0l-9.06-30.08L41.85,78.17a8.3,8.3,0,0,0-.66-2.2"/><path d="M30,56.73l15,8a6.3,6.3,0,0,0,3.28-.61l32.74-12.8c1.42-.55,2.2-1.17,1.79-1.38l-10.41-5,5.48-2.14,5.35-.67,26.85-2.56a11.38,11.38,0,0,0,3.22-.84l37.52-14.68a4.85,4.85,0,0,0,1.81-1c.14-.24-.19-.34-1-.25L114.92,27c12.53-6.58,17-11.43,12.56-13.69-7.41-3.78-28.55,1-61.15,13.72L14.9,47.14c-1.42.55-2.21,1.16-1.8,1.37Zm44.69-26c9-3.5,14.12-4.46,16.74-3.13s-4.6,4.71-8.74,6.34L64.67,41l-6.9-3.63Z"/><path d="M331.11,205.63,320.77,87.38c-.38-3.32-.76-3.69-3.5-5.38-9.59-5.89-20.52-11.67-30.47-17-2.74-1.48-5.91-3.78-9-3.54L183.31,75.72l-15.63-52c-.8-1.55-2.62-2.28-4.12-3.14-10.69-6.11-23.21-12-34.33-17.54-2.54-1.27-5.93-3.55-8.81-3L2.19,46.37a3,3,0,0,0-1.07.73,4.13,4.13,0,0,0-.95,4L34.33,165.81a1.53,1.53,0,0,0,.29.55,15.89,15.89,0,0,0,4.66,3.24c12.54,7.08,26.41,12.89,39.17,19.71a3,3,0,0,0,1.34.35l.63,0a5.43,5.43,0,0,0,2.12-.37l74-29.1c1.12,13.77,2.31,27.53,3.73,41.27,0,.16,0,.35,0,.54q-14.65-4.93-29.31-9.8c-1.52-.5-5.57-2.13-6.9-1.9a2.71,2.71,0,0,0-1.8,1.65C108,231.33,93.4,270.62,79.45,310.12a1.37,1.37,0,0,0-.09.61c.23,1.94,3,3.15,4.33,4.23,9.38,7.33,18.83,14.83,28.86,21.2,36.48,11.83,72.55,25,109.14,36.5,1.52.47,4.94,2,6.28,1.85a2,2,0,0,0,1.46-.9q22.2-59.33,43.4-119.11c0-1.3-.84-2-1.68-2.76-10.56-7.52-20.41-16.21-31.46-22.95l-9.31-3.13c30.16-4.54,60.38-8.66,90.46-13.62,2.46-.4,5.37-.75,7.75-1.32,3.16-.77,2.5-2.28,2.53-5.08M7.49,46.37,120.42,2.26a5.93,5.93,0,0,1,3.26.2L160.17,21.1c1.27.69,1.94,2.07.8,3.22L45.53,69.57A4.36,4.36,0,0,1,43,69c-5.08-1.93-11.41-5.69-16.44-8.22-5.74-2.88-14.37-6.6-19.46-9.91-2.69-1.74-2.58-3.15.37-4.49M73.84,185.08,38.31,166.94l-2.23-2.12L3.18,55.52c-.27-1.42-.64-3.27,1.2-3.59a2,2,0,0,1,1.44.22L42.07,70.67l2,2L77.3,184c-.3,1.75-2.1,1.6-3.47,1.08m8.72,2a2.71,2.71,0,0,1-1.3-.32c-1.61-.85-3-7.08-3.63-9.08-10.8-34.59-20.34-69.6-31-104.21a3.3,3.3,0,0,1,2.12-2.89l115.56-45c1.68,0,2.49,1.26,2.92,2.71L181.45,76l-8,1.21c-8.23-16.87-28-37.59-74.17-19.54L57.79,73.92A2.79,2.79,0,0,0,56,77.19l15.93,51,13.83,48.62a2.3,2.3,0,0,0,3.13,1.37l41.81-16.36a110.12,110.12,0,0,0,24.84-13.24q.39,4.83.77,9.65Zm42-50.5-9.07,3.55-8.33-26.28-8-28.53L107.58,82c15.71-6.15,27,.51,32.6,19.25,5.41,18.11.58,29-15.62,35.32m37.69,64c-1.41-13.7-2.59-27.42-3.7-41.16-.05-.63-.11-1.26-.16-1.9q-.42-5.18-.83-10.35c-1.61-20.24-3.2-40.49-5.29-60.67-.07-1.77-.23-3.33,1.69-4.11l20.43-3.13,7.65-1.17,1.86-.29,91.47-14c4-.54,3.57,2.56,3.85,5.29,3.48,33.78,6,67.73,8.89,101.57.35,4.1,1.12,8.65,1.27,12.7.06,1.67-.38,3.07-2.17,3.45q-56.86,8.82-113.78,17.35c-1,.15-2.74.52-4.42.82l-6.54-2.21c-.13-.74-.16-1.53-.23-2.18m54.49,167.27c-.63,1.86-5.13-.5-6.36-.92-32.73-11.22-65.7-21.77-98.4-33.1L92.4,319.48c-.87-.91-1.26-2.49.32-2.78a7.06,7.06,0,0,1,2.91.64c33.45,10.77,66.49,23,100,33.7,6,3.7,11.59,8.23,17.25,12.49,1.16.87,4.49,2.5,3.89,4.29m23.16-132.09c.34-1,.95-2.22,2.08-2.45s1.77.33,2.65.9c8.31,5.41,16.05,12.72,24.33,18.29a3.43,3.43,0,0,1,1.35,3.52L228.77,369.87c-1,1.63-3.07,1.11-4.38.09-7.24-6.5-16.84-11.68-24-18.11a3.76,3.76,0,0,1-1.54-3.14Zm-3.76-6.13c1.5.58,2.54,1.22,2.64,3Q218.3,290.09,197,347.38c-1.51,1.91-3.33.94-5.19.35-31.48-10-62.69-21.18-94-31.66-4.08-1.36-9.09-2.54-12.93-4.12-2.44-1-3.32-2-2.53-4.71L122.88,196c.49-1.44,1.15-3,2.87-3.13a6.05,6.05,0,0,1,1.81.27l33,11.08,8.62,2.9,9.67,3.25L216,222.82l6.26,2.1,4,1.36Zm85.76-19.75-95.58,14.46-6.26-2.11,31.13-4.73c42.26-6.42,60.58-12.72,51.62-17.73-4.42-2.47-21.1-7.25-80.55,1.78l-43.72,6.64-5.62-1.9,115.16-17.54a6.93,6.93,0,0,1,4.58.76c10.22,5.09,20.08,11.88,30.35,17,1.69,1.29.84,3.12-1.1,3.37M221,206.52l9-1.37c16.69-2.54,28.26-2.36,33.4.51,5,2.78-.51,5.18-17.72,7.79l-9.64,1.46-7.72-4Zm103.55-1.25c-10.3-5.22-20.24-11.89-30.59-17.11a4.78,4.78,0,0,1-2.6-3.75c-.39-3.34-.43-6.79-.73-10.15q-4.58-50.77-8.89-101.57c-.14-1.63-1-5-.15-6.32a1.68,1.68,0,0,1,1.2-.81,4.5,4.5,0,0,1,2.7.84c10.31,5.22,20.25,11.87,30.59,17.12a4.68,4.68,0,0,1,2.4,3l10.42,117.27c-.4,3-2.25,2.52-4.36,1.45"/><path d="M169.89,198.89l35.47-5.39a2.88,2.88,0,0,0,2.53-3l-3.3-34.05,5.94-.9,4.55,4.69,22.14,26.8a3,3,0,0,0,3.12,1.1L281,182a2.81,2.81,0,0,0,2.22-1.46,2.08,2.08,0,0,0-.49-2.28l-30.93-34c15-8.63,22.6-21.57,21.3-36.53-2.19-25-22-35.37-57.33-30L185.3,82.36l-1.88.29-7.22,1.1L160,86.2a2.85,2.85,0,0,0-2.53,2.93l5.18,53.68.17,1.82.84,10.81.15,1.88,3.08,39.48a2.46,2.46,0,0,0,3,2.09m48.86-95.1c9.71-1.47,14.37,1.84,15.15,10.67.76,8.64-7.54,12.21-12,12.89l-19.56,3-1.93-23.74Z"/><path d="M315.17,89.47c-.09-.37-.29-1-.62-1.21l-8.79-4.92c-.3-.17-.52.3-.57,1.35l-.89,35.88-7.56-40.68a3.63,3.63,0,0,0-.86-2.07l-9.49-5.31c-.33-.18-.43.31-.46.64a8.15,8.15,0,0,0,.2,2.32l16.28,79.08,2.7,31.76v0c.12,1.36.52,2.64.87,2.85l8.55,4.78c.37.21.57-.75.45-2.13l-3-32.22,3.39-67.84a9,9,0,0,0-.21-2.3"/><path d="M207.79,227.11l-10.88-3.65a2.56,2.56,0,0,0-2.61.72l-.21.21-1.06,1.3-25.26,30.91.44-41a2.46,2.46,0,0,0-1.6-2.33l-29.14-9.79a1.89,1.89,0,0,0-2,.34,2.66,2.66,0,0,0-.83,2.21l4.59,80.51-11.33,30.33v0a2.29,2.29,0,0,0,1.15,3l26.23,8.81a2.45,2.45,0,0,0,2.91-1.71l10.67-30.89,55.61-60a2.76,2.76,0,0,0,.76-2.21,1.85,1.85,0,0,0-1.34-1.43l-12-4Z"/><path d="M211,353.45c.3.23.94-.68,1.42-2l11.81-32.66,1.17.88-1,5.68-6.53,31.35c-.25,1-.22,1.73,0,1.93l8,6c.21.15.51-.1.84-.72a8.68,8.68,0,0,0,.75-2.27l7.88-40.6c5.24-3.69,11-13.55,16.19-27.86,8.71-23.92,9.63-39.29,2.69-44.5l-10.94-8.22c-.3-.23-.93.65-1.42,2l-19.25,53.22-18.24,49.76c-.48,1.32-.63,2.58-.33,2.81Zm30.63-82.37,3.61,2.71c1.91,1.43,1.37,5.86-1.7,14.31-3,8.27-5.47,9.19-6.35,8.53l-3.84-2.89Z"/><path d="M202.52,359.43c-6.53-4.9-26.53-13.11-56.3-23.12-14.69-4.93-47.84-15.66-38.65-8.76l6.81,5.12a16,16,0,0,0,2.52,1l46.61,15.62,44.16,14.88c1.16.39,1.94.58,1.72.41Zm-45.35-14.67L131.27,336l-1.39-1c-2.58-1.94,5.08.07,22.15,5.8,16.49,5.54,25,8.89,27.67,10.89l1.49,1.12Z"/></svg>